<?xml version="1.0" encoding="iso-8859-1"?>
<!-- Uploaded to: SVG Repo, www.svgrepo.com, Generator: SVG Repo Mixer Tools -->
<!DOCTYPE svg PUBLIC "-//W3C//DTD SVG 1.1//EN" "http://www.w3.org/Graphics/SVG/1.1/DTD/svg11.dtd">
<svg fill="#000000" version="1.1" id="Capa_1" xmlns="http://www.w3.org/2000/svg" xmlns:xlink="http://www.w3.org/1999/xlink" 
	 width="800px" height="800px" viewBox="0 0 212.858 212.858"
	 xml:space="preserve">
<g>
	<path d="M161.913,165.442h-41.357V37.333h52.499c-6.2,10.32-21.994,38.5-21.994,58.008c0,15.853,12.685,28.75,28.26,28.75
		c15.581,0,28.26-12.897,28.26-28.75c0-18.37-15.983-47.543-22.071-58.008h18.778V25.216h-83.731V0H92.308v25.216H8.582v12.117
		h18.689c-6.203,10.32-21.994,38.5-21.994,58.008c0,15.853,12.678,28.75,28.259,28.75c15.587,0,28.259-12.897,28.259-28.75
		c0-18.37-15.98-47.543-22.08-58.008h52.585v128.109H50.944v19.163H8.576v28.253h195.705v-28.253h-42.368V165.442z M198.087,90.802
		h-37.533c1.938-15.416,12.749-35.831,18.713-46.092C185.172,55.184,196.03,76.045,198.087,90.802z M52.301,90.802H14.768
		c1.941-15.416,12.752-35.843,18.716-46.092C39.4,55.184,50.256,76.039,52.301,90.802z"/>
</g>
</svg>